<?xml version="1.0" standalone="no"?>
<!DOCTYPE svg PUBLIC "-//W3C//DTD SVG 20010904//EN"
 "http://www.w3.org/TR/2001/REC-SVG-20010904/DTD/svg10.dtd">
<svg version="1.0" xmlns="http://www.w3.org/2000/svg"
 width="690.000000pt" height="690.000000pt" viewBox="0 0 690.000000 690.000000"
 preserveAspectRatio="xMidYMid meet">
<metadata>
Created by potrace 1.14, written by Peter Selinger 2001-2017
</metadata>
<g transform="translate(0.000000,690.000000) scale(0.100000,-0.100000)"
fill="#000000" stroke="none">
<path d="M0 3450 l0 -3200 963 0 962 0 35 33 c38 36 88 68 188 118 34 18 62
35 62 39 0 4 6 7 13 7 6 0 33 9 58 21 25 11 98 37 163 56 65 20 125 40 134 45
9 4 33 11 52 14 19 4 67 13 105 22 97 22 259 52 325 61 30 4 60 8 65 9 6 1 46
3 90 4 44 2 74 5 66 8 -8 3 24 19 70 34 80 27 125 30 154 10 14 -10 25 -8 68
12 20 10 42 15 47 12 5 -3 16 10 24 30 8 19 20 35 25 35 6 0 11 7 11 15 0 8 8
15 18 15 27 0 62 29 62 51 0 12 7 19 20 19 11 0 20 6 20 13 0 10 113 40 188
49 6 1 12 4 12 8 0 3 16 12 35 19 19 7 35 17 35 22 0 5 5 9 10 9 7 0 10 -55 8
-165 l-3 -165 50 -1 c277 -6 685 -96 925 -205 125 -56 283 -156 350 -220 l36
-34 727 0 727 0 0 3200 0 3200 -3450 0 -3450 0 0 -3200z m3805 1796 c225 -24
361 -69 481 -157 260 -191 393 -620 394 -1267 0 -177 11 -192 158 -213 131
-19 122 5 122 -308 0 -203 -3 -271 -12 -278 -7 -6 -57 -15 -112 -21 -67 -8
-104 -17 -117 -28 -11 -10 -21 -15 -23 -13 -2 2 -8 75 -13 161 -8 145 -14 180
-28 166 -10 -9 -34 -220 -36 -308 -1 -47 -6 -93 -11 -103 -5 -9 -11 -45 -15
-80 -3 -34 -12 -71 -19 -82 -7 -11 -25 -56 -40 -100 -14 -44 -32 -85 -40 -91
-8 -6 -14 -17 -14 -24 0 -7 -7 -10 -16 -6 -14 5 -16 1 -11 -24 4 -18 2 -30 -4
-30 -6 0 -7 4 -4 10 3 5 2 10 -3 10 -12 0 -22 -24 -23 -58 l-1 -27 -11 27
c-11 27 -27 38 -27 18 0 -5 -9 -10 -20 -10 -11 0 -25 -9 -32 -20 -15 -24 -28
-26 -28 -5 0 22 -23 8 -42 -26 -10 -17 -22 -27 -28 -24 -6 4 -13 -7 -16 -24
-4 -17 -10 -31 -14 -31 -10 0 -28 40 -36 80 -3 19 -17 59 -30 88 -13 29 -24
57 -24 62 0 6 -7 10 -15 10 -9 0 -21 24 -34 68 -14 45 -31 76 -51 95 -16 16
-30 35 -30 43 0 8 -4 14 -10 14 -5 0 -10 9 -10 21 0 15 -5 19 -15 15 -10 -3
-15 1 -15 14 0 19 -32 36 -50 25 -5 -3 -10 -3 -10 2 0 18 -67 36 -180 48 -79
9 -124 16 -132 21 -4 3 -8 0 -8 -6 0 -7 -7 -10 -15 -6 -8 3 -15 1 -15 -4 0
-11 -97 -2 -122 11 -10 6 -19 5 -23 -1 -4 -6 -15 -6 -30 0 -17 6 -25 6 -25 -1
0 -6 -4 -8 -9 -5 -15 9 -121 15 -126 7 -7 -13 -55 -10 -55 3 0 7 -3 8 -8 0
-12 -18 -91 -45 -139 -48 -18 -1 -23 -7 -23 -28 0 -18 -5 -28 -15 -28 -8 0
-15 -7 -15 -15 0 -9 -6 -12 -17 -8 -11 4 -14 3 -9 -5 4 -7 0 -15 -9 -18 -9 -4
-22 -22 -30 -41 -8 -19 -19 -32 -25 -28 -6 4 -10 -7 -10 -27 0 -23 -3 -29 -9
-19 -6 10 -11 1 -16 -28 -4 -22 -10 -41 -15 -41 -4 0 -11 -11 -14 -25 -4 -14
-11 -23 -16 -20 -5 3 -10 -5 -12 -17 -2 -13 -7 -22 -13 -21 -5 1 -17 -4 -25
-12 -24 -21 -77 -45 -100 -45 -11 0 -20 -4 -20 -8 0 -4 -10 -8 -22 -9 -13 0
-17 1 -10 4 10 4 10 8 0 21 -11 13 -11 14 2 7 13 -8 13 -7 1 8 -7 9 -10 17 -5
17 7 0 10 82 3 100 -3 11 1 340 5 384 3 26 2 45 -3 42 -8 -5 -5 59 3 81 3 7 1
13 -5 13 -6 0 -7 5 -3 11 8 14 8 184 0 198 -4 6 -3 11 2 11 4 0 8 57 8 127
l-1 128 39 6 c28 5 51 1 80 -12 23 -10 52 -19 66 -19 20 0 16 4 -20 23 -25 12
-57 40 -72 62 -33 47 -53 137 -38 166 7 11 7 19 1 19 -14 0 45 109 77 143 35
38 97 66 147 67 32 1 36 3 20 10 -33 14 -140 11 -178 -5 -33 -14 -40 -13 -72
2 -19 9 -36 21 -36 27 -6 42 -4 128 3 164 5 24 10 69 13 100 4 53 11 93 15
100 2 1 4 7 5 12 1 6 4 13 5 18 1 4 2 11 1 15 -3 20 21 87 32 87 7 0 6 4 -3
10 -8 5 -10 10 -5 10 6 0 12 12 13 27 1 15 7 32 12 37 6 6 10 16 10 23 0 7 17
47 39 90 62 125 71 140 86 153 8 7 15 17 15 22 0 12 105 118 117 118 5 0 20
12 34 26 34 36 228 129 331 158 84 24 114 30 238 44 59 8 184 6 265 -2z
m-1855 -1870 c-1 -167 -3 -195 -20 -226 -17 -32 -19 -33 -27 -15 -4 11 -8 111
-8 223 0 163 3 205 14 211 37 23 41 5 41 -193z m1205 -836 c-3 -5 -13 -10 -21
-10 -8 0 -12 5 -9 10 3 6 13 10 21 10 8 0 12 -4 9 -10z m-63 -77 c15 -13 49
-18 166 -24 81 -4 154 -8 162 -9 26 -2 -22 -19 -57 -19 -18 -1 -33 -5 -33 -11
0 -5 -6 -10 -14 -10 -16 0 -26 -20 -27 -58 -1 -17 -3 -21 -6 -9 -11 42 -23 -1
-23 -84 0 -80 2 -90 18 -87 11 2 18 -4 20 -19 2 -13 10 -23 18 -23 8 0 14 -6
14 -14 0 -23 18 -29 97 -32 41 -2 78 -6 83 -9 6 -4 10 -1 10 6 0 6 8 9 20 6
13 -3 20 0 20 9 0 8 9 19 20 26 18 12 20 24 20 141 0 111 -2 128 -15 123 -10
-4 -15 1 -15 14 0 14 -11 23 -40 31 -22 7 -38 14 -36 17 3 2 66 8 140 12 101
6 143 12 162 25 30 20 54 13 54 -15 0 -11 6 -20 13 -20 15 0 40 -68 30 -83 -3
-6 -1 -7 4 -4 12 8 38 -47 29 -61 -3 -6 1 -12 9 -16 8 -3 15 -18 15 -33 0 -38
50 -153 66 -153 16 0 22 -24 20 -71 -3 -47 -13 -61 -34 -50 -9 4 -23 6 -30 4
-7 -3 -20 3 -27 13 -9 11 -14 14 -15 7 0 -7 -3 -12 -7 -11 -5 1 -19 -4 -32
-11 -12 -7 -32 -11 -42 -8 -12 3 -19 0 -19 -9 0 -20 -17 -17 -37 6 -23 26 -41
25 -65 -2 -16 -19 -21 -20 -28 -8 -8 12 -10 10 -10 -7 0 -13 -4 -23 -10 -23
-5 0 -10 4 -10 9 0 5 -11 8 -24 5 -15 -2 -31 3 -41 13 -13 13 -19 13 -25 3 -4
-7 -14 -10 -21 -8 -8 3 -19 -2 -26 -11 -11 -14 -12 -14 -13 1 0 22 -30 12 -30
-9 0 -13 -3 -13 -15 -3 -13 10 -19 10 -33 -3 -11 -10 -22 -13 -32 -7 -8 5 -21
5 -31 -1 -11 -5 -20 -5 -23 0 -4 5 -14 8 -24 6 -9 -1 -23 2 -29 8 -9 6 -13 6
-13 -1 0 -17 -28 -3 -33 16 -3 10 -5 4 -6 -12 l-1 -29 -24 22 c-23 22 -25 22
-34 4 -10 -17 -11 -17 -19 2 -10 25 -43 26 -66 0 -18 -19 -18 -19 -24 3 -4 18
-11 21 -39 18 -18 -3 -41 -7 -51 -10 -10 -3 -27 1 -37 9 -16 12 -19 26 -18 80
1 36 -2 65 -7 65 -4 0 -8 6 -9 13 0 6 -5 29 -10 50 -7 26 -7 39 2 45 13 8 32
37 46 70 5 12 13 22 18 22 4 0 19 35 31 78 41 134 45 140 83 105z m-168 -418
c-4 -8 -8 -15 -10 -15 -2 0 -4 7 -4 15 0 8 4 15 10 15 5 0 7 -7 4 -15z m848
-244 c4 11 3 -57 -1 -70 0 -2 -8 2 -16 9 -13 11 -13 14 2 26 15 11 15 13 3 14
-9 0 -16 11 -17 27 l-1 28 13 -24 c9 -17 14 -20 17 -10z m74 -246 c-14 -14
-16 -14 -16 -2 0 9 6 17 13 20 19 7 21 -1 3 -18z m-693 -862 c-7 -2 -19 -2
-25 0 -7 3 -2 5 12 5 14 0 19 -2 13 -5z"/>
<path d="M3932 4015 c-89 -28 -163 -110 -182 -202 -11 -53 -7 -80 9 -55 4 8
12 -8 19 -39 16 -68 45 -114 95 -150 51 -37 85 -39 38 -2 -44 34 -81 114 -81
175 0 36 4 48 18 51 15 4 15 5 0 6 -15 1 -15 5 -6 34 32 92 113 165 195 175
41 5 44 7 23 13 -38 11 -81 9 -128 -6z"/>
<path d="M3938 3803 c-24 -4 -28 -9 -28 -37 0 -70 93 -107 143 -58 18 18 19
24 8 31 -7 5 -10 14 -7 20 4 6 12 9 17 6 5 -4 9 2 9 13 0 15 -9 21 -46 26 -26
3 -52 5 -58 5 -6 -1 -23 -4 -38 -6z"/>
<path d="M2680 3765 c0 -48 37 -85 83 -85 47 0 74 26 82 78 l7 42 -86 0 -86 0
0 -35z"/>
<path d="M4250 3750 c0 -19 3 -21 12 -12 9 9 9 15 0 24 -9 9 -12 7 -12 -12z"/>
<path d="M3264 3036 c-3 -8 -4 -29 -2 -47 5 -51 44 -73 135 -77 54 -3 74 -1
69 7 -4 6 -28 11 -54 11 -59 0 -92 21 -92 60 0 15 -3 35 -6 44 -8 20 -43 21
-50 2z"/>
<path d="M2590 2430 c0 -5 5 -10 11 -10 5 0 7 5 4 10 -3 6 -8 10 -11 10 -2 0
-4 -4 -4 -10z"/>
</g>
</svg>
